<?xml version="1.0" encoding="utf-8"?>
<!-- Generator: Adobe Illustrator 22.1.0, SVG Export Plug-In . SVG Version: 6.00 Build 0)  -->
<svg version="1.1" id="ocad-logo" xmlns="http://www.w3.org/2000/svg" xmlns:xlink="http://www.w3.org/1999/xlink" x="0px" y="0px"
	 viewBox="0 0 161 138.8" style="enable-background:new 0 0 161 138.8;" xml:space="preserve">
<style type="text/css">
	.st0{fill:#010101;}
	.st1{fill:none;stroke:#000000;stroke-width:4.252;stroke-linecap:square;stroke-miterlimit:10;}
</style>
<polygon id="y" class="st0" points="144.7,30.5 141.7,25.5 144.2,25.5 145.8,28.4 147.3,25.5 149.7,25.5 146.8,30.5 146.8,33.5 
	144.7,33.5 "/>
<polygon id="t" class="st0" points="136.3,27.5 134,27.5 134,25.5 140.8,25.5 140.8,27.5 138.5,27.5 138.5,33.5 136.3,33.5 "/>
<rect id="i_1_" x="130.6" y="25.5" class="st0" width="2.1" height="8"/>
<path id="s" class="st0" d="M125.8,33.7c-0.7,0-1.3-0.1-2-0.3c-0.6-0.2-1.2-0.6-1.6-1l1.2-1.5c0.8,0.6,1.6,1,2.5,1
	c0.3,0,0.5,0,0.7-0.1c0.2-0.1,0.2-0.2,0.2-0.4v0c0-0.1,0-0.2-0.1-0.2c0-0.1-0.1-0.1-0.2-0.2c-0.1-0.1-0.2-0.1-0.4-0.2
	c-0.2-0.1-0.4-0.1-0.6-0.2c-0.4-0.1-0.8-0.2-1.1-0.3c-0.4-0.1-0.7-0.3-0.9-0.5c-0.3-0.2-0.5-0.4-0.6-0.7c-0.2-0.3-0.2-0.6-0.2-1v0
	c0-0.4,0.1-0.7,0.2-1c0.1-0.3,0.3-0.6,0.6-0.8c0.3-0.2,0.6-0.4,0.9-0.5c0.4-0.1,0.8-0.2,1.2-0.2c0.7,0,1.2,0.1,1.8,0.3
	c0.5,0.2,1,0.4,1.4,0.8l-1.1,1.6c-0.4-0.3-0.7-0.5-1.1-0.6c-0.4-0.1-0.7-0.2-1.1-0.2c-0.3,0-0.5,0-0.6,0.1c-0.1,0.1-0.2,0.2-0.2,0.4
	v0c0,0.1,0,0.2,0.1,0.2c0,0.1,0.1,0.1,0.2,0.2c0.1,0.1,0.2,0.1,0.4,0.2c0.2,0.1,0.4,0.1,0.7,0.2c0.4,0.1,0.8,0.2,1.2,0.3
	c0.4,0.1,0.7,0.3,0.9,0.5c0.2,0.2,0.4,0.4,0.6,0.7c0.1,0.3,0.2,0.6,0.2,1v0c0,0.4-0.1,0.8-0.2,1.1c-0.2,0.3-0.4,0.6-0.6,0.8
	c-0.3,0.2-0.6,0.4-1,0.5C126.7,33.6,126.3,33.7,125.8,33.7"/>
<path id="r" class="st0" d="M117.8,29.4c0.4,0,0.6-0.1,0.8-0.3c0.2-0.2,0.3-0.4,0.3-0.7v0c0-0.3-0.1-0.6-0.3-0.7
	c-0.2-0.2-0.5-0.2-0.8-0.2h-1.4v1.9H117.8z M114.3,25.5h3.6c0.6,0,1.1,0.1,1.5,0.2c0.4,0.2,0.7,0.4,1,0.6c0.5,0.5,0.7,1.1,0.7,1.9v0
	c0,0.6-0.1,1.1-0.4,1.5c-0.3,0.4-0.7,0.7-1.2,0.9l1.8,2.8h-2.5l-1.6-2.4h0h-0.9v2.4h-2.1V25.5z"/>
<polygon id="e" class="st0" points="106.3,25.5 112.4,25.5 112.4,27.4 108.4,27.4 108.4,28.6 112.1,28.6 112.1,30.4 108.4,30.4 
	108.4,31.6 112.5,31.6 112.5,33.5 106.3,33.5 "/>
<polygon id="v" class="st0" points="96.8,25.5 99.2,25.5 101,30.6 102.7,25.5 105.1,25.5 101.9,33.6 99.9,33.6 "/>
<rect id="i" x="93.5" y="25.5" class="st0" width="2.1" height="8"/>
<polygon id="n" class="st0" points="84.1,25.5 86.1,25.5 89.3,29.8 89.3,25.5 91.4,25.5 91.4,33.5 89.5,33.5 86.2,29.1 86.2,33.5 
	84.1,33.5 "/>
<path id="u" class="st0" d="M78.6,33.7c-0.6,0-1-0.1-1.5-0.2c-0.4-0.1-0.8-0.4-1.1-0.7s-0.5-0.7-0.7-1.1c-0.2-0.5-0.2-1-0.2-1.6
	v-4.5h2.2V30c0,0.6,0.1,1,0.4,1.3c0.3,0.3,0.6,0.4,1,0.4c0.4,0,0.8-0.1,1-0.4C79.9,31,80,30.6,80,30v-4.5h2.2V30
	c0,0.6-0.1,1.2-0.3,1.7c-0.2,0.5-0.4,0.8-0.7,1.2c-0.3,0.3-0.7,0.5-1.1,0.7C79.7,33.6,79.2,33.7,78.6,33.7"/>
<path id="d" class="st0" d="M105.4,19c0.6,0,1.2-0.2,1.5-0.5c0.4-0.3,0.6-0.8,0.6-1.5v0c0-0.6-0.2-1.1-0.6-1.5
	c-0.4-0.4-0.9-0.5-1.5-0.5h-0.9V19H105.4z M102.4,13h3c0.7,0,1.3,0.1,1.8,0.3c0.5,0.2,1,0.5,1.4,0.8c0.4,0.3,0.7,0.8,0.8,1.2
	c0.2,0.5,0.3,1,0.3,1.6v0c0,0.6-0.1,1.1-0.3,1.6c-0.2,0.5-0.5,0.9-0.9,1.3c-0.4,0.4-0.8,0.6-1.4,0.8c-0.5,0.2-1.2,0.3-1.9,0.3h-2.9
	V13z"/>
<path id="a" class="st0" d="M97.7,17.8l-0.9-2.3L96,17.8H97.7z M95.8,12.9h2.1l3.3,8h-2.3l-0.6-1.4h-3l-0.6,1.4h-2.2L95.8,12.9z"/>
<path id="c" class="st0" d="M88.4,21.1c-0.6,0-1.1-0.1-1.6-0.3c-0.5-0.2-0.9-0.5-1.3-0.9c-0.4-0.4-0.6-0.8-0.8-1.3
	c-0.2-0.5-0.3-1.1-0.3-1.6v0c0-0.6,0.1-1.1,0.3-1.6c0.2-0.5,0.5-0.9,0.8-1.3s0.8-0.7,1.3-0.9c0.5-0.2,1-0.3,1.6-0.3
	c0.4,0,0.8,0,1.1,0.1c0.3,0.1,0.6,0.2,0.9,0.3c0.3,0.1,0.5,0.3,0.7,0.5c0.2,0.2,0.4,0.4,0.6,0.7l-1.6,1.3c-0.2-0.3-0.5-0.5-0.7-0.7
	c-0.3-0.2-0.6-0.2-1-0.2c-0.3,0-0.5,0.1-0.7,0.2c-0.2,0.1-0.4,0.3-0.6,0.4c-0.2,0.2-0.3,0.4-0.4,0.7c-0.1,0.3-0.1,0.5-0.1,0.8v0
	c0,0.3,0,0.6,0.1,0.8c0.1,0.3,0.2,0.5,0.4,0.7c0.2,0.2,0.4,0.3,0.6,0.5c0.2,0.1,0.5,0.2,0.7,0.2c0.2,0,0.4,0,0.5-0.1
	c0.2,0,0.3-0.1,0.5-0.2c0.1-0.1,0.3-0.2,0.4-0.3c0.1-0.1,0.2-0.2,0.4-0.4l1.6,1.2c-0.2,0.3-0.4,0.5-0.6,0.7
	c-0.2,0.2-0.5,0.4-0.7,0.6c-0.3,0.2-0.6,0.3-0.9,0.4C89.2,21,88.9,21.1,88.4,21.1"/>
<path id="o" class="st0" d="M79,19.1c0.3,0,0.6-0.1,0.8-0.2c0.2-0.1,0.4-0.3,0.6-0.5c0.2-0.2,0.3-0.4,0.4-0.7
	c0.1-0.3,0.1-0.5,0.1-0.8v0c0-0.3,0-0.6-0.1-0.8c-0.1-0.3-0.2-0.5-0.4-0.7c-0.2-0.2-0.4-0.4-0.6-0.5c-0.2-0.1-0.5-0.2-0.8-0.2
	c-0.3,0-0.6,0.1-0.8,0.2c-0.2,0.1-0.4,0.3-0.6,0.5c-0.2,0.2-0.3,0.4-0.4,0.7c-0.1,0.3-0.1,0.5-0.1,0.8v0c0,0.3,0,0.6,0.1,0.8
	c0.1,0.3,0.2,0.5,0.4,0.7c0.2,0.2,0.4,0.4,0.6,0.5C78.5,19,78.7,19.1,79,19.1 M79,21.1c-0.6,0-1.1-0.1-1.7-0.3
	c-0.5-0.2-0.9-0.5-1.3-0.9c-0.4-0.4-0.7-0.8-0.9-1.3s-0.3-1-0.3-1.6v0c0-0.6,0.1-1.1,0.3-1.6c0.2-0.5,0.5-0.9,0.9-1.3
	s0.8-0.7,1.3-0.9c0.5-0.2,1.1-0.3,1.7-0.3s1.1,0.1,1.7,0.3c0.5,0.2,0.9,0.5,1.3,0.9c0.4,0.4,0.7,0.8,0.9,1.3s0.3,1,0.3,1.6v0
	c0,0.6-0.1,1.1-0.3,1.6s-0.5,0.9-0.9,1.3c-0.4,0.4-0.8,0.7-1.3,0.9C80.2,21,79.6,21.1,79,21.1"/>
<path id="u-ocadu" class="st0" d="M89.1,122.4c0.3-0.9,0.5-2,0.5-3.2v-8.6h-4v8.7c0,1.1-0.3,2-0.8,2.5c-0.5,0.5-1.2,0.8-2.1,0.8
	c-0.9,0-1.6-0.3-2.1-0.9c-0.5-0.6-0.8-1.5-0.8-2.6v-8.6h-4v8.7c0,1.2,0.2,2.3,0.5,3.1c0.3,0.9,0.8,1.6,1.4,2.2
	c0.6,0.6,1.3,1,2.2,1.3c0.8,0.3,1.8,0.4,2.9,0.4c1.1,0,2-0.1,2.9-0.4c0.8-0.3,1.6-0.7,2.2-1.3C88.3,124,88.8,123.3,89.1,122.4"/>
<path id="d-ocadu" class="st0" d="M49.8,80c0,1.4-0.4,2.5-1.3,3.2c-0.8,0.7-1.9,1.1-3.3,1.1h-2v-8.7h2c1.4,0,2.5,0.4,3.3,1.1
	C49.4,77.5,49.8,78.6,49.8,80L49.8,80z M53.5,83.2c0.4-1,0.6-2.1,0.6-3.3v0c0-1.2-0.2-2.3-0.6-3.3c-0.4-1-1-1.8-1.7-2.5
	c-0.8-0.7-1.7-1.3-2.8-1.7c-1.1-0.4-2.4-0.6-3.8-0.6h-6v16.3h6c1.4,0,2.7-0.2,3.8-0.6c1.1-0.4,2.1-1,2.8-1.7
	C52.5,85.1,53.1,84.2,53.5,83.2"/>
<path id="a-ocadu" class="st0" d="M21.1,76.7l2.1,5.5H19L21.1,76.7z M24.4,85.6l1,2.7h4.5l-6.7-16.4h-4.1l-6.7,16.4h4.4l1-2.7H24.4z
	"/>
<path id="c-ocadu" class="st0" d="M52.2,60.3c0.4-0.4,0.8-0.9,1.2-1.4l-3.1-2.3c-0.2,0.3-0.4,0.5-0.7,0.7c-0.3,0.3-0.5,0.5-0.8,0.7
	c-0.3,0.2-0.6,0.3-1,0.4c-0.3,0.1-0.7,0.1-1.2,0.1c-0.6,0-1.1-0.1-1.6-0.4c-0.5-0.2-0.9-0.6-1.2-1c-0.3-0.4-0.6-0.9-0.8-1.5
	c-0.2-0.6-0.3-1.2-0.3-1.8v0c0-0.6,0.1-1.2,0.3-1.8c0.2-0.6,0.5-1,0.8-1.4c0.3-0.4,0.8-0.7,1.2-1c0.5-0.2,1-0.4,1.6-0.4
	c0.8,0,1.5,0.2,2.1,0.5c0.5,0.3,1,0.8,1.5,1.3l3.1-2.5c-0.3-0.5-0.7-0.9-1.1-1.3c-0.4-0.4-0.9-0.8-1.5-1.1c-0.5-0.3-1.2-0.5-1.8-0.7
	c-0.6-0.2-1.4-0.2-2.2-0.2c-1.2,0-2.3,0.2-3.3,0.7c-1,0.4-1.9,1-2.6,1.8c-0.7,0.8-1.3,1.7-1.7,2.7c-0.4,1-0.6,2.2-0.6,3.3v0
	c0,1.2,0.2,2.3,0.6,3.4c0.4,1,1,1.9,1.7,2.7c0.7,0.7,1.6,1.3,2.6,1.8c1,0.4,2.1,0.6,3.2,0.6c0.9,0,1.7-0.1,2.4-0.3
	c0.7-0.2,1.3-0.4,1.9-0.8C51.2,61.1,51.8,60.7,52.2,60.3"/>
<path id="o-ocadu" class="st0" d="M25.4,54c0,0.6-0.1,1.2-0.3,1.8c-0.2,0.6-0.5,1-0.9,1.5c-0.4,0.4-0.8,0.7-1.3,1
	c-0.5,0.2-1.1,0.4-1.7,0.4c-0.6,0-1.2-0.1-1.7-0.4c-0.5-0.3-1-0.6-1.3-1c-0.4-0.4-0.7-0.9-0.9-1.5c-0.2-0.6-0.3-1.2-0.3-1.8v0
	c0-0.6,0.1-1.2,0.3-1.8c0.2-0.5,0.5-1,0.9-1.5c0.4-0.4,0.8-0.7,1.3-1c0.5-0.2,1.1-0.4,1.7-0.4s1.2,0.1,1.7,0.4c0.5,0.3,1,0.6,1.4,1
	c0.4,0.4,0.7,0.9,0.9,1.5C25.3,52.8,25.4,53.4,25.4,54L25.4,54z M29,57.3c0.4-1,0.6-2.1,0.6-3.3v0c0-1.2-0.2-2.3-0.6-3.3
	c-0.4-1-1-1.9-1.8-2.7c-0.8-0.8-1.7-1.4-2.7-1.8c-1-0.4-2.2-0.7-3.4-0.7c-1.2,0-2.4,0.2-3.4,0.7c-1,0.4-1.9,1-2.7,1.8
	c-0.8,0.8-1.4,1.7-1.8,2.7c-0.4,1-0.6,2.1-0.6,3.3v0c0,1.2,0.2,2.3,0.6,3.3c0.4,1,1,1.9,1.8,2.7c0.8,0.8,1.7,1.4,2.7,1.8
	c1,0.4,2.2,0.7,3.4,0.7c1.2,0,2.4-0.2,3.4-0.7c1-0.4,1.9-1.1,2.7-1.8C28,59.2,28.6,58.3,29,57.3"/>
<polyline id="shape" class="st1" points="100.5,99.6 100.5,136.7 64.7,136.7 64.7,34.8 2.1,34.8 2.1,99.6 158.9,99.6 158.9,2.1 
	64.7,2.1 64.7,99.6 "/>
</svg>
